{
  "asset": {
    "version": "2.0",
    "generator": "THREE.GLTFExporter"
  },
  "scenes": [
    {
      "nodes": [
        0
      ]
    }
  ],
  "scene": 0,
  "nodes": [
    {
      "children": [
        7
      ],
      "matrix": [
        0.01,
        0,
        0,
        0,
        0,
        0.01,
        0,
        0,
        0,
        0,
        0.01,
        0,
        0,
        0,
        0,
        1
      ]
    },
    {
      "matrix": [
        100,
        0,
        0,
        0,
        0,
        99.99999999999972,
        -0.000007549790126404325,
        0,
        0,
        0.000007549790126404325,
        99.99999999999972,
        0,
        0,
        0,
        0,
        1
      ],
      "name": "Mesh1_Mesh1037",
      "mesh": 0
    },
    {
      "matrix": [
        0.5,
        0,
        1.2246467991473532e-16,
        0,
        0,
        0.5,
        0,
        0,
        -1.2246467991473532e-16,
        0,
        0.5,
        0,
        16.91080985244971,
        8.304300709164087,
        17.51556923951284,
        1
      ],
      "name": "this_is_a_circular_sa_0201050422_texture",
      "children": [
        1
      ]
    },
    {
      "matrix": [
        -0.19107114313735907,
        1.2852528485929327e-8,
        -0.9815761907565725,
        0,
        -0.9056136695720097,
        0.3857300418021632,
        0.17628447559447902,
        0,
        0.3786234273582421,
        0.9226116923447814,
        -0.07370186839013515,
        0,
        243.85,
        1132.7251231587088,
        -90.48655966744964,
        1
      ],
      "name": "Camera",
      "camera": 0
    },
    {
      "matrix": [
        0.818330206939143,
        0.3834873878333963,
        -0.42810407120659055,
        0,
        0.4243387124947418,
        -0.9055035378607336,
        0,
        0,
        -0.38764975105015115,
        -0.18166113038956191,
        -0.9037294419328953,
        0,
        0,
        0,
        0,
        1
      ],
      "name": "Directional Light",
      "extensions": {
        "KHR_lights_punctual": {
          "light": 0
        }
      }
    },
    {
      "matrix": [
        0.0671715854344952,
        -2.72133161560717e-8,
        -0.9977414385050947,
        0,
        0.7219277766060648,
        -0.690259408344311,
        0.04860282457620846,
        0,
        -0.6887004163457724,
        -0.7235619871110983,
        -0.046365799173515354,
        0,
        -1038.105729162344,
        -1090.6541458677002,
        -69.78904597456636,
        1
      ],
      "camera": 1
    },
    {
      "matrix": [
        1,
        0,
        0,
        0,
        0,
        1,
        0,
        0,
        0,
        0,
        1,
        0,
        0,
        1,
        0,
        1
      ],
      "name": "Default Ambient Light"
    },
    {
      "name": "Scene",
      "children": [
        2,
        3,
        4,
        5,
        6
      ]
    }
  ],
  "bufferViews": [
    {
      "buffer": 0,
      "byteOffset": 0,
      "byteLength": 725472,
      "target": 34962,
      "byteStride": 12
    },
    {
      "buffer": 0,
      "byteOffset": 725472,
      "byteLength": 725472,
      "target": 34962,
      "byteStride": 12
    },
    {
      "buffer": 0,
      "byteOffset": 1450944,
      "byteLength": 483648,
      "target": 34962,
      "byteStride": 8
    }
  ],
  "buffers": [
    {
      "byteLength": 1934592,
      "uri": "data:application/octet-stream;base64,"
    }
  ],
  "accessors": [
    {
      "bufferView": 0,
      "componentType": 5126,
      "count": 60456,
      "max": [
        0.9988179802894592,
        0.1304520070552826,
        0.9990410208702087
      ],
      "min": [
        -1.0009020566940308,
        -0.1323300004005432,
        -1.000458002090454
      ],
      "type": "VEC3"
    },
    {
      "bufferView": 1,
      "componentType": 5126,
      "count": 60456,
      "max": [
        1,
        1,
        1
      ],
      "min": [
        -1,
        -1,
        -0.9999997615814209
      ],
      "type": "VEC3"
    },
    {
      "bufferView": 2,
      "componentType": 5126,
      "count": 60456,
      "max": [
        0.9743540287017822,
        0.9986699819564819
      ],
      "min": [
        0.0013299999991431832,
        0.0013299999991431832
      ],
      "type": "VEC2"
    }
  ],
  "meshes": [
    {
      "primitives": [
        {
          "mode": 4,
          "attributes": {
            "POSITION": 0,
            "NORMAL": 1,
            "TEXCOORD_0": 2
          },
          "extras": {
            "parameters": {
              "width": 1.99972003698349,
              "height": 0.2627820074558258,
              "depth": 1.9994990229606628,
              "subdivisions": 0
            },
            "type": "NonParametricGeometry"
          }
        }
      ]
    }
  ],
  "cameras": [
    {
      "type": "perspective",
      "perspective": {
        "aspectRatio": 2.142857142857143,
        "yfov": 0.7853981633974483,
        "zfar": 100000,
        "znear": 70
      },
      "name": "Camera"
    },
    {
      "type": "orthographic",
      "orthographic": {
        "xmag": 2.8030946336522162,
        "ymag": 1.3081108290377008,
        "zfar": 100000,
        "znear": 0
      }
    }
  ],
  "extensions": {
    "KHR_lights_punctual": {
      "lights": [
        {
          "name": "Directional Light",
          "color": [
            1,
            1,
            1
          ],
          "intensity": 0.7,
          "type": "directional"
        }
      ]
    }
  },
  "extensionsUsed": [
    "KHR_lights_punctual"
  ]
}